<svg xmlns="http://www.w3.org/2000/svg" xmlns:xlink="http://www.w3.org/1999/xlink" width="553.5" height="772" viewBox="0 0 553.5 772"><defs><style>.a,.e{fill:#000e1b;}.a{opacity:0.85;}.b,.f,.l{fill:#c6c6c6;}.b{font-size:14px;}.b,.f,.k,.l{font-family:WorkSans-Regular, Work Sans;}.c{fill:none;stroke:#c6c6c6;}.d,.g,.m{fill:#009ba7;}.e,.f{font-size:18px;}.e{font-family:WorkSans-Medium, Work Sans;font-weight:500;}.g,.m,.o{font-family:WorkSans-SemiBold, Work Sans;font-weight:600;}.h{opacity:0.8;}.i{fill:url(#a);}.j{fill:url(#b);}.k{fill:#6d6e71;opacity:0.5;}.k,.l{font-size:21px;}.m{font-size:28px;}.n,.o{fill:#fff;}.o{font-size:32px;}</style><linearGradient id="a" x1="0.5" y1="0.773" x2="0.5" y2="1" gradientUnits="objectBoundingBox"><stop offset="0" stop-color="#eaeaea"/><stop offset="1" stop-color="#ddd"/></linearGradient><linearGradient id="b" x1="0.5" y1="0.773" x2="0.5" y2="1" gradientUnits="objectBoundingBox"><stop offset="0" stop-color="#eaeaea" stop-opacity="0"/><stop offset="1" stop-color="#ddd"/></linearGradient></defs><g transform="translate(-683.5 -154)"><rect class="a" width="553" height="772" rx="30" transform="translate(684 154)"/><text class="b" transform="translate(711 867)"><tspan x="4.784" y="13">By clicking on next, you acknowledge that you have read and accepted </tspan><tspan x="99.662" y="33">the Terms of Service and the Privacy Policy.</tspan></text><path class="c" d="M2778.133,207.019h-553.46" transform="translate(-1541.173 643)"/><g transform="translate(854 498)"><rect class="d" width="180" height="50" rx="6" transform="translate(175 274)"/><text class="e" transform="translate(265 306)"><tspan x="-23.499" y="0">NEXT</tspan></text></g><text class="f" transform="translate(724 793)"><tspan x="0" y="0">FORGOT PASSWORD?</tspan><tspan class="g"><tspan x="0" y="21">CHECK HERE</tspan></tspan></text><g transform="translate(0 19)"><g class="h" transform="translate(-258 -68)"><rect class="i" width="498" height="70" rx="6" transform="translate(969 674)"/><rect class="j" width="498" height="70" rx="6" transform="translate(1467 744) rotate(180)"/></g><text class="k" transform="translate(960 649)"><tspan x="-58.558" y="0">PASSWORD</tspan></text></g><g transform="translate(0 19)"><g class="h" transform="translate(-258 -156)"><rect class="i" width="498" height="70" rx="6" transform="translate(969 674)"/><rect class="j" width="498" height="70" rx="6" transform="translate(1467 744) rotate(180)"/></g><text class="k" transform="translate(960 561)"><tspan x="-31.983" y="0">EMAIL</tspan></text></g><text class="l" transform="translate(960 500)"><tspan x="-184.433" y="0">Lighting Management System (LMS)</tspan></text><text class="m" transform="translate(960 461)"><tspan x="-43.288" y="0">LOGIN</tspan></text><g transform="translate(960.738 329.85)"><g transform="translate(-182.738 -37.964)"><path class="n" d="M68.588,0A22.291,22.291,0,0,0,50.959,8.627L0,74.482H10.074a14.9,14.9,0,0,0,11.79-5.789L28.721,59.8H66.712l.7,7.234a8.2,8.2,0,0,0,8.145,7.448h6.752L75.125,0ZM37.616,48.333,62.479,16.182l3.108,32.151Z" transform="translate(0 0)"/><path class="n" d="M189.08,79.914h31.668L215.5,86.826a12.217,12.217,0,0,1-9.752,4.823H167.7l.482-2.2c1.286-6.109,6.055-10.878,9.592-15.486l19.5-25.131H172.844l5.466-7.02a12.217,12.217,0,0,1,9.645-4.715h34.294Z" transform="translate(-77.839 -17.22)"/><path class="n" d="M273.6,31.615l5.519-7.073a12.217,12.217,0,0,1,9.592-4.662h1.929L292.783,9.7A12.324,12.324,0,0,1,304.84,0h5.251l-4.126,19.88h22.72l-5.519,7.02a12.217,12.217,0,0,1-9.645,4.715H303.446L298.41,55.728c-1.393,7.341,3.912,7.02,7.609,7.02H316.36l-5.2,6.912a12.217,12.217,0,0,1-9.752,4.823h-8.091c-8.681,0-12.807-6.43-10.61-16.986l5.466-25.881Z" transform="translate(-126.993 0)"/><path class="n" d="M404.574,70.429a12.217,12.217,0,0,0,9.752-4.823l5.037-6.859H384.908c4.287-8.734,12.271-9.913,20.523-9.913h3.429a12.217,12.217,0,0,0,9.645-4.769l5.412-6.966h-19.4c-26.149,0-33.115,16.236-35.473,27.435-3.537,16.558,3.644,27.114,22.988,27.114h8.038a12.217,12.217,0,0,0,9.806-4.93l5.037-6.805H395.464c-11.628,0-13.825-4.447-13.557-9.484Z" transform="translate(-170.893 -17.22)"/><path class="n" d="M521.308,80.014l-5.037,6.805a12.217,12.217,0,0,1-9.806,4.93h-7.93c-19.344,0-26.524-10.556-22.988-27.114,2.358-11.2,9.324-27.435,35.473-27.435h19.344L524.9,44.273a12.11,12.11,0,0,1-9.7,4.608h-3.322c-9.86,0-19.076,1.608-22.452,15.754-1.554,6.484-3.537,15.379,12.539,15.379Z" transform="translate(-220.326 -17.267)"/><path class="n" d="M573.7,74.482l13.45-64.73A12.217,12.217,0,0,1,599.1,0h5.037L600.01,19.88h12.324c13.343,0,22.184,3.429,18.647,19.987l-7.716,36.062h0a11.521,11.521,0,0,1-11.253-13.878l4.394-20.523c1.125-5.466,1.179-9.913-7.5-9.913H597.491l-7.02,33.169a12.217,12.217,0,0,1-11.949,9.7Z" transform="translate(-266.287 0)"/></g></g><text class="o" transform="translate(724 215)"><tspan x="0" y="0">Welcome Back!</tspan></text></g></svg>